<svg width="109" height="28" viewBox="0 0 109 28" fill="none" xmlns="http://www.w3.org/2000/svg">
<path d="M34.462 24.394C35.0513 24.394 35.618 24.0767 36.162 23.442L36.672 23.85C36.604 23.9407 36.5133 24.054 36.4 24.19C36.2867 24.326 36.0033 24.5073 35.55 24.734C35.1193 24.9607 34.6433 25.074 34.122 25.074C31.5833 25.074 30.314 23.9747 30.314 21.776C30.314 21.096 30.3933 20.0873 30.552 18.75C29.464 19.09 28.4893 19.26 27.628 19.26C26.1093 19.26 24.5907 18.7953 23.072 17.866C22.188 19.3847 21.3607 20.688 20.59 21.776C19.8193 22.8413 18.924 23.884 17.904 24.904C15.796 26.9667 13.246 27.998 10.254 27.998C7.28467 27.998 4.916 27.046 3.148 25.142C1.584 23.3967 0.802 21.2773 0.802 18.784C0.802 16.268 1.60667 14.0353 3.216 12.086C4.82533 10.1367 6.91067 9.162 9.472 9.162C12.0333 9.162 13.9827 9.92133 15.32 11.44C15.6373 11.848 15.864 12.154 16 12.358C17.224 12.8793 18.618 13.7407 20.182 14.942C21.3607 15.894 22.2333 16.5513 22.8 16.914C23.1173 16.3247 23.548 15.5313 24.092 14.534C24.6587 13.5367 25.0893 12.7773 25.384 12.256C25.6787 11.7347 26.1207 10.998 26.71 10.046C27.2993 9.094 27.7753 8.38 28.138 7.904C28.5233 7.40533 29.022 6.79333 29.634 6.068C30.2687 5.32 30.8467 4.76467 31.368 4.402C32.932 3.29133 34.2467 2.64533 35.312 2.464C35.9013 2.37333 36.4 2.328 36.808 2.328C37.216 2.328 37.6693 2.33933 38.168 2.362C38.6667 2.362 39.3693 2.48667 40.276 2.736L40.106 3.382C39.562 3.22333 38.984 3.11 38.372 3.042C36.1053 11.95 34.802 19.0673 34.462 24.394ZM17.088 16.302C17.088 17.9793 16.6007 19.464 15.626 20.756C14.674 22.048 13.382 22.694 11.75 22.694C10.6847 22.694 9.812 22.3767 9.132 21.742C8.47467 21.1073 8.146 20.45 8.146 19.77C8.146 19.09 8.248 18.5347 8.452 18.104C8.656 17.6507 8.88267 17.3107 9.132 17.084C9.404 16.8573 9.69867 16.676 10.016 16.54C10.4467 16.3133 10.7867 16.2 11.036 16.2L11.104 16.88C10.5373 16.88 10.016 17.152 9.54 17.696C9.064 18.24 8.826 18.852 8.826 19.532C8.826 20.212 9.08667 20.8013 9.608 21.3C10.152 21.776 10.866 22.014 11.75 22.014C13.2007 22.014 14.3453 21.4473 15.184 20.314C16.0227 19.1807 16.442 17.9227 16.442 16.54C16.442 15.1573 16.1587 13.956 15.592 12.936C14.3453 12.46 13.11 12.222 11.886 12.222C9.52867 12.222 7.86267 13.3213 6.888 15.52L6.242 15.316C6.49133 14.7493 6.888 14.1373 7.432 13.48C8.49733 12.188 9.982 11.542 11.886 11.542C12.906 11.542 13.9147 11.6893 14.912 11.984L14.844 11.882C13.5973 10.522 11.7953 9.842 9.438 9.842C7.10333 9.842 5.188 10.7487 3.692 12.562C2.21867 14.3753 1.482 16.4607 1.482 18.818C1.482 21.1527 2.20733 23.102 3.658 24.666C5.29 26.434 7.568 27.318 10.492 27.318C13.1667 27.318 15.5013 26.3093 17.496 24.292C18.4933 23.3173 19.3547 22.3087 20.08 21.266C20.828 20.2233 21.6327 18.9653 22.494 17.492C21.7233 16.9933 20.7827 16.3133 19.672 15.452C18.584 14.568 17.53 13.8653 16.51 13.344C16.8953 14.296 17.088 15.282 17.088 16.302ZM23.412 17.288C24.8627 18.1493 26.1887 18.58 27.39 18.58C28.614 18.58 29.702 18.3873 30.654 18.002C31.198 14.1713 32.218 9.41133 33.714 3.722C31.9007 4.58333 30.2347 6.11333 28.716 8.312C27.6053 9.89867 26.268 12.1087 24.704 14.942L23.412 17.288ZM40.2901 10.998C40.9701 10.182 41.8201 9.774 42.8401 9.774C43.8827 9.774 44.6874 10.0347 45.2541 10.556C45.8207 11.0773 46.1041 11.814 46.1041 12.766V12.97C47.1241 10.8393 48.4501 9.774 50.0821 9.774C51.8274 9.774 52.7001 10.6807 52.7001 12.494C52.7001 13.242 52.4507 14.0353 51.9521 14.874C51.4534 15.7127 50.9547 16.5173 50.4561 17.288C49.9574 18.036 49.7081 18.7047 49.7081 19.294H48.8921C48.8921 18.4553 49.3794 17.322 50.3541 15.894C51.3287 14.466 51.8161 13.3667 51.8161 12.596C51.8161 11.8027 51.6574 11.27 51.3401 10.998C51.0454 10.7033 50.5921 10.556 49.9801 10.556C49.3907 10.556 48.8014 10.8167 48.2121 11.338C47.6454 11.8593 47.1694 12.5167 46.7841 13.31C46.1721 14.4887 45.7641 15.452 45.5601 16.2V16.234L44.3361 23H40.2561L42.5001 10.454C41.8201 10.522 41.2534 10.8393 40.8001 11.406L40.2901 10.998ZM61.5945 15.894C61.1185 15.418 60.8805 14.84 60.8805 14.16C60.8805 13.48 61.1185 12.902 61.5945 12.426C62.0705 11.9273 62.6485 11.678 63.3285 11.678C63.5325 11.678 63.7932 11.7233 64.1105 11.814C63.6799 11.0207 62.8752 10.624 61.6965 10.624C60.5179 10.624 59.4752 11.372 58.5685 12.868C57.6619 14.364 57.2085 16.5853 57.2085 19.532C57.2085 20.552 57.4352 21.3113 57.8885 21.81C58.3645 22.286 58.9539 22.524 59.6565 22.524C60.3592 22.524 60.9939 22.388 61.5605 22.116C62.1499 21.844 62.6145 21.5267 62.9545 21.164C63.2945 20.7787 63.5892 20.382 63.8385 19.974C64.2919 19.226 64.5185 18.75 64.5185 18.546L65.1305 18.818C65.0625 19.1807 64.8585 19.668 64.5185 20.28C64.1785 20.8693 63.8045 21.3567 63.3965 21.742C62.9885 22.1273 62.3879 22.49 61.5945 22.83C60.8012 23.1473 59.9172 23.306 58.9425 23.306C57.1065 23.306 55.7125 22.8753 54.7605 22.014C53.8312 21.13 53.3665 19.9287 53.3665 18.41C53.3665 15.7127 54.0352 13.6047 55.3725 12.086C56.7325 10.5447 58.5685 9.774 60.8805 9.774C62.4445 9.774 63.6459 10.1707 64.4845 10.964C65.3232 11.7573 65.7425 12.8 65.7425 14.092C65.7425 14.908 65.4932 15.5313 64.9945 15.962C64.5185 16.3927 63.9519 16.608 63.2945 16.608C62.6372 16.608 62.0705 16.37 61.5945 15.894ZM73.4018 21.776C73.1072 22.1613 72.6992 22.5127 72.1778 22.83C71.6792 23.1473 71.0218 23.306 70.2058 23.306C69.3898 23.306 68.6985 23.0453 68.1318 22.524C67.5652 22.0027 67.2818 21.266 67.2818 20.314C67.2818 20.1327 67.3045 19.838 67.3498 19.43L69.5598 7.19C69.9678 4.946 70.5232 3.348 71.2258 2.396C71.9512 1.444 72.9032 0.968 74.0818 0.968C74.8978 0.968 75.5665 1.274 76.0878 1.886C76.6318 2.498 76.9038 3.42733 76.9038 4.674C76.9038 5.92067 76.4165 7.7 75.4418 10.012C74.4898 12.324 74.0138 14.0127 74.0138 15.078H73.4018C73.4018 13.8767 73.8778 12.1653 74.8298 9.944C75.7818 7.7 76.2578 5.90933 76.2578 4.572C76.2578 3.756 76.0652 3.05333 75.6798 2.464C75.3172 1.87467 74.8638 1.58 74.3198 1.58C74.2972 2.16933 73.9005 4.82133 73.1298 9.536C72.3818 14.228 71.6338 18.5913 70.8858 22.626C71.5205 22.626 72.1098 22.2973 72.6538 21.64C73.1978 20.9827 73.5832 20.3253 73.8098 19.668L74.1838 18.648L74.7958 18.92C74.7278 19.2373 74.5465 19.702 74.2518 20.314C73.9798 20.9033 73.6965 21.3907 73.4018 21.776ZM88.6447 23.306C86.6501 23.306 85.5621 22.4333 85.3807 20.688C84.3834 22.4333 83.1254 23.306 81.6067 23.306C80.0881 23.306 78.8754 22.8527 77.9687 21.946C77.0847 21.0167 76.6427 19.7247 76.6427 18.07C76.6427 15.486 77.2774 13.4573 78.5467 11.984C79.8161 10.5107 81.4594 9.774 83.4767 9.774C85.1314 9.774 86.2307 10.556 86.7747 12.12C86.8881 11.44 87.0127 10.76 87.1487 10.08C88.8261 10.08 90.0727 10.012 90.8887 9.876L91.3307 9.774L88.9847 22.626C89.6647 22.558 90.2314 22.2407 90.6847 21.674L91.1947 22.082C90.5147 22.898 89.6647 23.306 88.6447 23.306ZM80.4847 19.804C80.4847 20.824 80.6094 21.538 80.8587 21.946C81.1307 22.3313 81.5387 22.524 82.0827 22.524C82.6267 22.524 83.1821 22.2293 83.7487 21.64C84.4967 20.8693 85.0974 19.8947 85.5507 18.716C85.6187 18.4213 85.7434 17.7187 85.9247 16.608C86.1287 15.4747 86.2987 14.5453 86.4347 13.82C86.3667 12.9587 86.1287 12.2107 85.7207 11.576C85.3127 10.9413 84.8027 10.624 84.1907 10.624C83.0801 10.624 82.1847 11.6213 81.5047 13.616C80.8247 15.588 80.4847 17.6507 80.4847 19.804ZM106.269 22.626C106.813 22.626 107.38 22.3087 107.969 21.674L108.479 22.082C108.321 22.3993 107.969 22.6827 107.425 22.932C106.881 23.1813 106.281 23.306 105.623 23.306C103.561 23.306 102.529 22.3767 102.529 20.518C102.529 19.7247 102.733 18.308 103.141 16.268C103.549 14.228 103.753 12.8907 103.753 12.256C103.753 11.2813 103.289 10.794 102.359 10.794C101.611 10.794 100.886 11.2813 100.183 12.256C99.5035 13.2307 98.9368 14.568 98.4835 16.268L97.3275 22.626C98.0301 22.558 98.6081 22.2407 99.0615 21.674L99.5715 22.082C98.8915 22.898 98.0415 23.306 97.0215 23.306C96.0015 23.306 95.1968 23.0453 94.6075 22.524C94.0408 22.0027 93.7575 21.3227 93.7575 20.484C93.7575 20.1667 93.9388 18.92 94.3015 16.744L95.4235 10.454C94.7435 10.522 94.1768 10.8393 93.7235 11.406L93.2135 10.998C93.8935 10.182 94.7435 9.774 95.7635 9.774C96.8061 9.774 97.6108 10.0347 98.1775 10.556C98.7441 11.0773 99.0275 11.814 99.0275 12.766V12.97C99.9568 10.8393 101.407 9.774 103.379 9.774C104.717 9.774 105.759 10.1593 106.507 10.93C107.255 11.678 107.629 12.7207 107.629 14.058C107.629 14.7607 107.414 16.1207 106.983 18.138C106.553 20.1327 106.315 21.6287 106.269 22.626Z" fill="black"/>
</svg>
