<svg width="24" height="24" viewBox="0 0 24 24" fill="none" xmlns="http://www.w3.org/2000/svg">
<circle cx="12" cy="12" r="12" fill="white"/>
<path d="M7 6.5C7 5.83696 7.26339 5.20107 7.73223 4.73223C8.20107 4.26339 8.83696 4 9.5 4H12V9H9.5C8.83696 9 8.20107 8.73661 7.73223 8.26777C7.26339 7.79893 7 7.16304 7 6.5Z" stroke="black" stroke-linecap="round" stroke-linejoin="round"/>
<path d="M12 4H14.5C14.8283 4 15.1534 4.06466 15.4567 4.1903C15.76 4.31594 16.0356 4.50009 16.2678 4.73223C16.4999 4.96438 16.6841 5.23998 16.8097 5.54329C16.9353 5.84661 17 6.1717 17 6.5C17 6.8283 16.9353 7.15339 16.8097 7.45671C16.6841 7.76002 16.4999 8.03562 16.2678 8.26777C16.0356 8.49991 15.76 8.68406 15.4567 8.8097C15.1534 8.93534 14.8283 9 14.5 9H12V4Z" stroke="black" stroke-linecap="round" stroke-linejoin="round"/>
<path d="M12 11.5C12 11.1717 12.0647 10.8466 12.1903 10.5433C12.3159 10.24 12.5001 9.96438 12.7322 9.73223C12.9644 9.50009 13.24 9.31594 13.5433 9.1903C13.8466 9.06466 14.1717 9 14.5 9C14.8283 9 15.1534 9.06466 15.4567 9.1903C15.76 9.31594 16.0356 9.50009 16.2678 9.73223C16.4999 9.96438 16.6841 10.24 16.8097 10.5433C16.9353 10.8466 17 11.1717 17 11.5C17 11.8283 16.9353 12.1534 16.8097 12.4567C16.6841 12.76 16.4999 13.0356 16.2678 13.2678C16.0356 13.4999 15.76 13.6841 15.4567 13.8097C15.1534 13.9353 14.8283 14 14.5 14C14.1717 14 13.8466 13.9353 13.5433 13.8097C13.24 13.6841 12.9644 13.4999 12.7322 13.2678C12.5001 13.0356 12.3159 12.76 12.1903 12.4567C12.0647 12.1534 12 11.8283 12 11.5V11.5Z" stroke="black" stroke-linecap="round" stroke-linejoin="round"/>
<path d="M7 16.5C7 15.837 7.26339 15.2011 7.73223 14.7322C8.20107 14.2634 8.83696 14 9.5 14H12V16.5C12 17.163 11.7366 17.7989 11.2678 18.2678C10.7989 18.7366 10.163 19 9.5 19C8.83696 19 8.20107 18.7366 7.73223 18.2678C7.26339 17.7989 7 17.163 7 16.5Z" stroke="black" stroke-linecap="round" stroke-linejoin="round"/>
<path d="M7 11.5C7 10.837 7.26339 10.2011 7.73223 9.73223C8.20107 9.26339 8.83696 9 9.5 9H12V14H9.5C8.83696 14 8.20107 13.7366 7.73223 13.2678C7.26339 12.7989 7 12.163 7 11.5Z" stroke="black" stroke-linecap="round" stroke-linejoin="round"/>
</svg>
